<?xml version="1.0" encoding="UTF-8"?>
<svg width="16.933mm" height="16.933mm" version="1.1" viewBox="0 0 16.933 16.933" xmlns="http://www.w3.org/2000/svg" xmlns:cc="http://creativecommons.org/ns#" xmlns:dc="http://purl.org/dc/elements/1.1/" xmlns:rdf="http://www.w3.org/1999/02/22-rdf-syntax-ns#">
<g transform="translate(-177.75 -24.287)">
<g transform="matrix(1.6298 0 0 1.6298 79.597 -421.4)">
<circle cx="65.418" cy="278.66" r="5.1951" fill="#4e4c40"/>
<path d="m64.963 281.08-0.01669-1.8375-2.8731 0.68487s-0.25056 0.11695-0.21716-0.18375c0.03341-0.30067 0.03341-0.31737 0.03341-0.31737s0.05011-0.21717 0.33409-0.3675c0.28398-0.15034 2.4889-1.3864 2.4889-1.3864s-0.03341-1.1693-0.03341-1.7707c0-0.60134 0.33409-1.8542 0.75169-1.8542 0.41761 0 0.7517 1.186 0.7517 1.6871 0 0.50112 0.01669 1.8709 0.01669 1.8709l2.5057 1.5368s0.3842 0.16704 0.3842 0.36751c0 0.20045-0.05011 0.3842-0.41761 0.31737-0.3675-0.0668-2.6226-0.68488-2.6226-0.68488l-0.01671 2.0546c0.60046 0.41897 1.4504 0.86995 1.2862 1.1693s-1.1354-0.25341-1.7874-0.26729c-0.65195-0.0139-1.5551 0.68274-1.8041 0.35079-0.30068-0.40088 0.6022-0.75168 1.2361-1.3697z" fill="#fff"/>
</g>
</g>
</svg>
