<?xml version="1.0" encoding="UTF-8"?>
<svg width="16.933mm" height="16.933mm" version="1.1" viewBox="0 0 16.933 16.933" xmlns="http://www.w3.org/2000/svg" xmlns:cc="http://creativecommons.org/ns#" xmlns:dc="http://purl.org/dc/elements/1.1/" xmlns:rdf="http://www.w3.org/1999/02/22-rdf-syntax-ns#">
<g transform="translate(-177.75 -24.287)">
<g transform="translate(227.43 -120.16)">
<circle cx="-41.22" cy="152.91" r="8.4667" fill="#4e4c40"/>
<path transform="scale(.26458)" d="m-141.4 552.27c-0.61733 0.0314-1.2787 0.18219-1.8144 0.58398-1.4286 1.0715-3.2143 2.322-6.25 1.9648-3.0357-0.35717-3.392-0.71485-5.1777-0.71485-1.7857 0-4.1077 1.0711-6.9648 0.89258-2.8572-0.17839-2.3214-1.4291-5-1.9648-2.6753-0.53507-4.9925-0.3559-4.998-0.35547 7e-3 4e-3 2.6207 1.64 2.0156 4.1934-0.60593 2.5569 1.0201 4.4194 0.125 6.5195-0.89508 2.1001-4.301 9.8077-4.6426 15.762-0.34154 5.9546 0.75417 11.821 5.3574 14.238s8.0352 1.608 8.0352 2.3223c0 0.7143 0.39372 1.7684-0.14649 2.6152-0.54019 0.84676-2.6467 0.82047-2.9609 1.6699-0.31423 0.84945-0.46317 1.5187 0.42969 1.6973 0.89286 0.17839 0.44641-1.1613 1.875-1.3398 1.4286-0.17839 0.30708 2.7089 1.5176 2.6777 1.2105-0.0302 0.26757-2.4093 1.5176-2.5879 1.25-0.1784 3.0723 0.19335 3.0723 0.19335s0.053-0.81975-0.83984-1.3555c-0.89286-0.53571-2.3212-1.0712-2.1426-2.1426 0.17858-1.0715 0.89314-1.6074 2.8574-1.6074s3.2137 0.53596 3.0352 1.6074c-0.17858 1.0714-0.18944 1.4808-1.4394 1.8379-1.25 0.35716-1.4707 1.6602-1.4707 1.6602 0 0 1.7598-0.89146 2.5742-0.46093 0.81443 0.43052 0.0397 2.5613 1.125 2.6562 1.0852 0.0949 0.27584-2.0885 1.2285-2.6562s1.9726 0.25 1.9726 0.25c1.0363 0.78489 2.3738 0.17937 1.7344-0.76563-1.0007-1.479-2.4052-0.9558-3.2773-1.3652-0.80825-0.37943-1.3329-1.9428-0.48243-2.584 0.90178-0.67993 8.0352 0.53459 11.785-6.4297 3.75-6.9643 2.2347-13.973 0.2832-19.162-1.3023-3.4631-3.1621-6.5237-3.1621-10.631 0-4.1071 2.1641-6.9922 2.1641-6.9922s-0.90667-0.27888-1.9356-0.22656zm-14.541 9.3711 4.0391 5.6816-3.5352 2.7793-4.166-3.0312zm8.5645 0.12695c0.028-2.9e-4 0.056-2.9e-4 0.084 0 1.9874-4.7e-4 3.5989 1.4406 3.5996 3.2188 5.2e-4 1.7789-1.6114 3.2212-3.5996 3.2207-1.9875-5e-4 -3.5982-1.4424-3.5976-3.2207 1.3e-4 -1.7486 1.5599-3.1774 3.5137-3.2188zm-16.836 0.50391c1.8482 2.3e-4 3.3462 1.4422 3.3457 3.2207 4.9e-4 1.7784-1.4975 3.2205-3.3457 3.2207-1.8482-2.3e-4 -3.3462-1.4423-3.3457-3.2207-4.8e-4 -1.7784 1.4975-3.2205 3.3457-3.2207zm5.1133 17.932h7.1973l-3.7871 4.166zm8.5859 0h7.1992l-3.7891 4.166zm-17.93 0.25195h7.1973l-3.7871 4.166zm4.4199 5.4297h7.1973l-3.7871 4.166zm9.3438 0.12695h7.1973l-3.7871 4.166z" fill="#fff"/>
</g>
</g>
</svg>
