<?xml version="1.0" encoding="UTF-8"?>
<svg width="16.933mm" height="16.933mm" version="1.1" viewBox="0 0 16.933 16.933" xmlns="http://www.w3.org/2000/svg" xmlns:cc="http://creativecommons.org/ns#" xmlns:dc="http://purl.org/dc/elements/1.1/" xmlns:rdf="http://www.w3.org/1999/02/22-rdf-syntax-ns#">
<g transform="translate(-177.75 -24.287)">
<g transform="matrix(1.6298 0 0 1.6298 46.302 -390.12)">
<circle cx="85.847" cy="259.47" r="5.1951" fill="#4e4c40"/>
<path d="m87.564 257.51s-0.28398-1.0023-1.637-0.98556c-1.353 0.0167-2.1382 0.60135-2.4722 1.5702-0.33409 0.96885-0.10022 1.5034-0.31738 2.1716-0.21716 0.66818-0.71829 1.2194-0.71829 1.2194s0.53454 0.53454 1.9711 0.7684c1.4366 0.23386 2.7562-0.0334 2.7562-0.0334s-0.80181-0.16704-0.98556-0.65147c-0.18375-0.48442-0.07075-1.1577 0.7684-1.47 0.71828-0.26727 1.1693 0.0334 1.3363 0.46772 0.16704 0.43431-0.06682 1.1192-0.06682 1.1192s0.75169-0.50113 1.019-1.2027c0.26727-0.70158 0.30068-1.4366-0.20045-2.1382s-1.1693-0.65147-1.1693-0.65147 0.01669-0.41761 0.33409-0.735c0.31738-0.31738 0.93544-0.68488 0.93544-0.68488s-0.48442-0.16704-0.60136-0.23386c-0.11693-0.0668-0.46772-0.43431-0.46772-0.43431s0.01669 0.55124-0.10023 1.0023c-0.11693 0.45102-0.3842 0.90204-0.3842 0.90204z" fill="#fff"/>
</g>
</g>
</svg>
