<?xml version="1.0" encoding="UTF-8"?>
<svg width="16.933mm" height="16.933mm" version="1.1" viewBox="0 0 16.933 16.933" xmlns="http://www.w3.org/2000/svg" xmlns:cc="http://creativecommons.org/ns#" xmlns:dc="http://purl.org/dc/elements/1.1/" xmlns:rdf="http://www.w3.org/1999/02/22-rdf-syntax-ns#">
<g transform="translate(-177.75 -24.287)">
<g transform="matrix(1.6298 0 0 1.6298 64.494 -390.17)">
<circle cx="74.685" cy="259.5" r="5.1951" fill="#4e4c40"/>
<path transform="scale(.26458)" d="m276.43 969.64s-2.7485 0.93068-4.9102 2.2324c-2.1617 1.3017-4.06 2.42-4.375 3.8398-0.31499 1.4198 0.85522 2.7853 1.2949 3.6152 0.4397 0.82994 1.6018 3.1563 2.5449 3.3476 0.94317 0.19125 3.3027-2.3203 3.3027-2.3203s-1.1155 3.5265-1.4727 4.9551c-0.35713 1.4286-0.52396 4.5836 0.13477 5.3125 0.65874 0.72892 4.1956 2.5898 9.5527 2.5898s8.9616-2.5709 9.5527-3.6172c0.59109-1.0463-0.19205-3.3245-0.89257-4.9551 0 0-0.8923-1.7252-1.1602-4.2852 0 0 2.2108 2.0859 3.2148 2.1426 1.0893 0.0616 4.4713-5.3624 4.375-6.2949-1.8503-2.4813-5.8458-5.0391-9.7324-6.2051 0 0-1.7863 3.9277-5.7148 3.9277s-5.7148-4.2852-5.7148-4.2852zm5.7148 6.6973a1.6964 1.5625 0 0 1 1.6973 1.5625 1.6964 1.5625 0 0 1-1.6973 1.5625 1.6964 1.5625 0 0 1-1.6953-1.5625 1.6964 1.5625 0 0 1 1.6953-1.5625zm0.0898 4.7754a1.6964 1.5625 0 0 1 1.6953 1.5625 1.6964 1.5625 0 0 1-1.6953 1.5625 1.6964 1.5625 0 0 1-1.6973-1.5625 1.6964 1.5625 0 0 1 1.6973-1.5625z" fill="#fff"/>
</g>
</g>
</svg>
