<?xml version="1.0" encoding="UTF-8"?>
<svg width="16.933mm" height="16.933mm" version="1.1" viewBox="0 0 16.933 16.933" xmlns="http://www.w3.org/2000/svg" xmlns:cc="http://creativecommons.org/ns#" xmlns:dc="http://purl.org/dc/elements/1.1/" xmlns:rdf="http://www.w3.org/1999/02/22-rdf-syntax-ns#">
<g transform="translate(-177.75 -24.287)">
<g transform="translate(209.74 -238.93)">
<circle cx="-23.533" cy="271.69" r="8.4667" fill="#4e4c40"/>
<path d="m-23.387 265.06-2.4335 1.7719 1.087 8e-5s0.51979-0.82711 1.2521-0.82711 1.1808 0.80319 1.1808 0.80319l1.016 1.6e-4zm-0.13022 1.831c-0.62602 0-0.83819 0.60248-0.83819 0.60248h-1.0869v1.1337h3.7087v-1.1812h-0.99197s-0.16566-0.55496-0.79168-0.55496zm-4.9015 1.7362-2.1737 1.9372 3.6857 0.0236 2.1415-1.3128h-1.386v-0.64802zm7.5091 0v0.64802h-1.386l2.1893 1.2656 3.5198-0.0472-2.0551-1.8663zm-2.6664 0.63813-3.0474 1.9132h6.4016zm4.0161 1.9607v0.5669h-7.7721v-0.51985h-2.7171v1.3229h0.25993v2.575h-0.66146v0.87384l13.796 0.0946v-0.87386h-0.54312v-2.7642h0.33073v-1.2754zm-5.8823 1.0868h1.5591v3.0473h-1.5591zm2.3621 0.0233h1.5591v3.0473h-1.5591zm-4.5119 0.0238c0.89754 3e-3 0.89762 0.70848 0.89762 0.70848v1.725h-1.8428v-1.725s0.04762-0.71049 0.94516-0.70848zm8.1737 0.047c0.89754 3e-3 0.89762 0.70901 0.89762 0.70901v1.7244h-1.8428v-1.7244s0.04762-0.71099 0.94516-0.70901z" fill="#fff"/>
</g>
</g>
</svg>
